<?xml version="1.0" standalone="yes"?>
<svg xmlns="http://www.w3.org/2000/svg" width="612" height="612">
<path style="fill:#ffffff; stroke:none;" d="M0 0L0 612L612 612L612 0L0 0z"/>
<path style="fill:#b8b8b8; stroke:none;" d="M290.667 222.333C290.222 222.778 291.278 222.722 291.333 222.667C291.778 222.222 290.722 222.278 290.667 222.333z"/>
<path style="fill:#909090; stroke:none;" d="M292.667 222.333C292.222 222.778 293.278 222.722 293.333 222.667C293.778 222.222 292.722 222.278 292.667 222.333z"/>
<path style="fill:#7b7b7b; stroke:none;" d="M294 222C298.72 223.981 304.92 223 310 223L344 223L461 223C456.28 221.019 450.08 222 445 222L411 222L294 222z"/>
<path style="fill:#d6d6d6; stroke:none;" d="M461.667 222.333C461.222 222.778 462.278 222.722 462.333 222.667C462.778 222.222 461.722 222.278 461.667 222.333z"/>
<path style="fill:#c2c2c2; stroke:none;" d="M287 223L288 224L287 223z"/>
<path style="fill:#333333; stroke:none;" d="M288 223L287 226C285.314 225.782 284.684 225.776 283 226C286.202 227.344 289.566 226.848 293 227.17C298.789 227.712 305.243 228.649 311 228.515C313.711 228.453 316.279 227.376 319 227.343C325.755 227.263 331.712 229.561 338.17 230.741C342.602 231.55 347.505 231 352 231L352 233L232 234C235.959 235.661 240.74 235 245 235L268 235L352 235C346.564 236.607 340.64 236 335 236L305 236L208 236L208 239C205.597 239.168 204.54 239.197 203 241L206 240C204.607 241.434 203.767 242.045 202 243C198.296 235.738 187.92 238 181 238C183.729 237.19 186.15 237.021 189 237L189 235C185.318 235.159 181.668 236.259 178 236.236C174.264 236.212 170.737 234.59 167 234.459C157.895 234.139 146.846 234.63 138 236.904C132.726 238.259 130.722 243.214 125.946 244.721C120.159 246.548 114.543 246.094 109 249L111 252C105.239 252.745 101.948 258.42 103 264C99.8584 266.703 100.082 272.039 100 276C105.363 275.706 109.503 273.955 109 268C113.196 265.155 113.736 259.978 116.789 256.059C120.817 250.889 128.929 249.681 135 251C132.002 252.713 128.039 253.936 125.703 256.557C120.648 262.229 119.983 274.771 118.35 282C115.246 295.735 111.725 310.908 111.104 325C110.604 336.356 112.917 347.554 111 359C120.433 363.539 134.673 361 145 361C148.023 361 153.747 362.064 156.243 359.972C158.252 358.289 157.353 355.179 157 353L158 355C160.006 351.829 161.031 348.17 163.108 345C165.825 340.853 169.22 338.059 170 333C183.69 330.105 195.075 327.817 209 331L208 333C210.946 334.357 213.278 335.232 215 338L220 337C218.733 342.68 223.015 346.761 224.794 352C225.673 354.588 226.102 358.275 228.51 359.972C230.545 361.407 233.653 360.992 236 361C235.66 353.205 231.675 347.324 230 340C234.08 345.769 238.811 356.505 245.325 359.651C248.034 360.96 252.079 360.014 255 360.001L276 360L330 360C339.749 360 350.479 358.733 360 361C362.57 351.391 365.586 341.17 373.545 334.677C375.514 333.07 378.665 333.07 381 332.18C393.708 327.338 406.946 328.135 417.675 337.298C425.653 344.111 427.42 351.649 431 361C433.709 360.352 436.216 360.058 439 360C437.973 353.057 433.933 346.894 433 340C436.536 344.568 439.741 348.397 445 351C443.45 360.462 453.303 357.01 459.004 356.184C472.003 354.299 486.136 351.666 498.576 347.329C502.845 345.841 508.532 345.506 510.782 340.945C512.534 337.393 511.006 331.87 511 328L511 296L511 251C511 246.621 513.343 237.834 510.393 234.322C507.817 231.255 503.4 232.813 500 232.961C493.105 233.259 481.596 235.015 475.17 232.397C470.754 230.598 468.77 225.281 464 223.912C460.211 222.825 454.957 224 451 224L420 224C391.684 224 363.271 224.498 335 224.125C319.677 223.923 303.183 225.819 288 223z"/>
<path style="fill:#2b2b2b; stroke:none;" d="M290 223C295.895 225.473 303.725 224.158 310 224.015C322.423 223.73 334.598 224.578 347 224.039C385.175 222.382 423.785 224 462 224C457.031 221.915 450.35 223 445 223L411 223L290 223z"/>
<path style="fill:#959595; stroke:none;" d="M464 223L465 224L464 223z"/>
<path style="fill:#919191; stroke:none;" d="M285 224L286 225L285 224z"/>
<path style="fill:#1c1c1c; stroke:none;" d="M285 226C286.58 225.316 286.777 225.195 288 224C286.42 224.684 286.223 224.805 285 226z"/>
<path style="fill:#9c9c9c; stroke:none;" d="M466 224L467 225L466 224z"/>
<path style="fill:#d1d1d1; stroke:none;" d="M282 225L283 226L282 225z"/>
<path style="fill:#7b7b7b; stroke:none;" d="M283 225L284 226L283 225z"/>
<path style="fill:#9a9a9a; stroke:none;" d="M467 225L468 226L467 225z"/>
<path style="fill:#c0c0c0; stroke:none;" d="M281 226L282 227L281 226z"/>
<path style="fill:#6f6f6f; stroke:none;" d="M282 226L283 227L282 226z"/>
<path style="fill:#a9a9a9; stroke:none;" d="M468 226L469 227L468 226z"/>
<path style="fill:#d7d7d7; stroke:none;" d="M286 227C287.506 227.683 288.315 227.826 290 228C288.494 227.317 287.685 227.174 286 227z"/>
<path style="fill:#a8a8a8; stroke:none;" d="M290 227C291.248 227.685 291.548 227.749 293 228C291.752 227.315 291.452 227.251 290 227z"/>
<path style="fill:#6c6c6c; stroke:none;" d="M293 227C294.248 227.685 294.548 227.749 296 228C294.752 227.315 294.452 227.251 293 227z"/>
<path style="fill:#1d1d1d; stroke:none;" d="M301 227C302.769 227.779 304.036 227.912 306 228C304.231 227.221 302.964 227.088 301 227z"/>
<path style="fill:#292929; stroke:none;" d="M312 228C318.577 230.76 328.841 230 336 230C328.992 226.632 319.512 227.051 312 228z"/>
<path style="fill:#a2a2a2; stroke:none;" d="M469 227L470 228L469 227z"/>
<path style="fill:#d3d3d3; stroke:none;" d="M300 228C301.506 228.683 302.315 228.826 304 229C302.494 228.317 301.685 228.174 300 228z"/>
<path style="fill:#a1a1a1; stroke:none;" d="M304 228C305.248 228.685 305.548 228.749 307 229C305.752 228.315 305.452 228.251 304 228z"/>
<path style="fill:#646464; stroke:none;" d="M307.667 228.333C307.222 228.778 308.278 228.722 308.333 228.667C308.778 228.222 307.722 228.278 307.667 228.333z"/>
<path style="fill:#b5b5b5; stroke:none;" d="M470 228L471 229L470 228z"/>
<path style="fill:#c5c5c5; stroke:none;" d="M315.667 229.333C315.222 229.778 316.278 229.722 316.333 229.667C316.778 229.222 315.722 229.278 315.667 229.333z"/>
<path style="fill:#9f9f9f; stroke:none;" d="M317 229C318.248 229.685 318.548 229.749 320 230C318.752 229.315 318.452 229.251 317 229z"/>
<path style="fill:#727272; stroke:none;" d="M320 229C321.248 229.685 321.548 229.749 323 230C321.752 229.315 321.452 229.251 320 229z"/>
<path style="fill:#454545; stroke:none;" d="M323.667 229.333C323.222 229.778 324.278 229.722 324.333 229.667C324.778 229.222 323.722 229.278 323.667 229.333z"/>
<path style="fill:#b0b0b0; stroke:none;" d="M471 229L472 230L471 229z"/>
<path style="fill:#dedede; stroke:none;" d="M328 230C329.248 230.685 329.548 230.749 331 231C329.752 230.315 329.452 230.251 328 230z"/>
<path style="fill:#a8a8a8; stroke:none;" d="M331.667 230.333C331.222 230.778 332.278 230.722 332.333 230.667C332.778 230.222 331.722 230.278 331.667 230.333z"/>
<path style="fill:#878787; stroke:none;" d="M333 230C334.248 230.685 334.548 230.749 336 231C334.752 230.315 334.452 230.251 333 230z"/>
<path style="fill:#cccccc; stroke:none;" d="M472 230L473 231L472 230z"/>
<path style="fill:#d0d0d0; stroke:none;" d="M340 231C341.506 231.683 342.315 231.826 344 232C342.494 231.317 341.685 231.174 340 231z"/>
<path style="fill:#a5a5a5; stroke:none;" d="M344 231C345.248 231.685 345.548 231.749 347 232C345.752 231.315 345.452 231.251 344 231z"/>
<path style="fill:#727272; stroke:none;" d="M347.667 231.333C347.222 231.778 348.278 231.722 348.333 231.667C348.778 231.222 347.722 231.278 347.667 231.333z"/>
<path style="fill:#343434; stroke:none;" d="M173 235C177.969 237.918 183.595 235.43 189 235L189 237L181 237C188.464 240.132 196.257 235.453 202 243C204.132 242.224 204.771 241.87 206 240C204.203 240 204.479 240.014 203 241C204.788 239.579 205.706 239.303 208 239L208 236L352 236C348.041 234.339 343.26 235 339 235L316 235L232 235C241.123 232.304 252.511 234 262 234L320 234C327.92 234 336.14 234.625 344 233.576C347.014 233.173 349.974 233.322 352 231C324.606 234.462 295.62 232 268 232C246.223 232 224.696 233.011 203 233.961C196.998 234.223 190.942 233.189 185 233.47C180.954 233.661 177.1 234.915 173 235z"/>
<path style="fill:#d5d5d5; stroke:none;" d="M473 231C476.699 232.552 481.017 232 485 232L508 232C504.301 230.448 499.983 231 496 231L473 231z"/>
<path style="fill:#ebebeb; stroke:none;" d="M188 232C190.332 232.985 192.457 232.981 195 233C192.668 232.015 190.543 232.019 188 232z"/>
<path style="fill:#bababa; stroke:none;" d="M195 232C196.769 232.779 198.036 232.912 200 233C198.231 232.221 196.964 232.088 195 232z"/>
<path style="fill:#989898; stroke:none;" d="M200 232C202.613 233.098 205.164 232.993 208 233C205.387 231.902 202.835 232.007 200 232z"/>
<path style="fill:#626262; stroke:none;" d="M208 232C211.432 233.44 215.3 233 219 233C215.568 231.56 211.7 232 208 232z"/>
<path style="fill:#464646; stroke:none;" d="M219 232C222.959 233.661 227.737 233 232 233C228.041 231.339 223.263 232 219 232z"/>
<path style="fill:#252525; stroke:none;" d="M473 232C476.699 233.552 481.017 233 485 233L505 233C501.301 231.448 496.983 232 493 232L473 232z"/>
<path style="fill:#959595; stroke:none;" d="M509 232L510 233L509 232z"/>
<path style="fill:#e3e3e3; stroke:none;" d="M164 233C166.332 233.985 168.457 233.981 171 234C168.668 233.015 166.543 233.019 164 233z"/>
<path style="fill:#9b9b9b; stroke:none;" d="M171 233C172.769 233.779 174.036 233.912 176 234C174.231 233.221 172.964 233.088 171 233z"/>
<path style="fill:#7d7d7d; stroke:none;" d="M176 233C177.248 233.685 177.548 233.749 179 234C177.752 233.315 177.452 233.251 176 233z"/>
<path style="fill:#474747; stroke:none;" d="M179 233C180.769 233.779 182.036 233.912 184 234C182.231 233.221 180.964 233.088 179 233z"/>
<path style="fill:#232323; stroke:none;" d="M187 233C192.959 235.5 201.564 234 208 234C202.041 231.5 193.436 233 187 233z"/>
<path style="fill:#7e7e7e; stroke:none;" d="M510 233L511 234L510 233z"/>
<path style="fill:#a9a9a9; stroke:none;" d="M155.667 234.333C155.222 234.778 156.278 234.722 156.333 234.667C156.778 234.222 155.722 234.278 155.667 234.333z"/>
<path style="fill:#818181; stroke:none;" d="M157 234C158.248 234.685 158.548 234.749 160 235C158.752 234.315 158.452 234.251 157 234z"/>
<path style="fill:#424242; stroke:none;" d="M160 234C161.769 234.779 163.036 234.912 165 235C163.231 234.221 161.964 234.088 160 234z"/>
<path style="fill:#222222; stroke:none;" d="M168 234C171.697 235.552 176.017 235 180 235C176.303 233.448 171.983 234 168 234z"/>
<path style="fill:#8b8b8b; stroke:none;" d="M511 234L512 235L511 234z"/>
<path style="fill:#afafaf; stroke:none;" d="M144 235C145.248 235.685 145.548 235.749 147 236C145.752 235.315 145.452 235.251 144 235z"/>
<path style="fill:#686868; stroke:none;" d="M147.667 235.333C147.222 235.778 148.278 235.722 148.333 235.667C148.778 235.222 147.722 235.278 147.667 235.333z"/>
<path style="fill:#c1c1c1; stroke:none;" d="M136.667 236.333C136.222 236.778 137.278 236.722 137.333 236.667C137.778 236.222 136.722 236.278 136.667 236.333z"/>
<path style="fill:#737373; stroke:none;" d="M138.667 236.333C138.222 236.778 139.278 236.722 139.333 236.667C139.778 236.222 138.722 236.278 138.667 236.333z"/>
<path style="fill:#cdcdcd; stroke:none;" d="M512 236L512 339C514.802 332.322 513 322.216 513 315L513 263C513 254.993 515.105 243.399 512 236z"/>
<path style="fill:#cbcbcb; stroke:none;" d="M133 237L134 238L133 237z"/>
<path style="fill:#5c5c5c; stroke:none;" d="M134.667 237.333C134.222 237.778 135.278 237.722 135.333 237.667C135.778 237.222 134.722 237.278 134.667 237.333z"/>
<path style="fill:#868686; stroke:none;" d="M132 238L133 239L132 238z"/>
<path style="fill:#626262; stroke:none;" d="M131 239L132 240L131 239z"/>
<path style="fill:#7e7e7e; stroke:none;" d="M130 240L131 241L130 240z"/>
<path style="fill:#212121; stroke:none;" d="M511 240L511 337C513.701 330.564 512 320.951 512 314L512 265C512 257.52 513.903 246.919 511 240z"/>
<path style="fill:#bcbcbc; stroke:none;" d="M129 241L130 242L129 241z"/>
<path style="fill:#4e4e4e; stroke:none;" d="M129.333 242.667C129.278 242.722 129.222 243.778 129.667 243.333C129.722 243.278 129.778 242.222 129.333 242.667z"/>
<path style="fill:#3a3a3a; stroke:none;" d="M381 242C386.951 244.497 395.58 243 402 243L448 243C442.049 240.503 433.42 242 427 242L381 242z"/>
<path style="fill:#272727; stroke:none;" d="M380 243C385.951 245.497 394.58 244 401 244L445 244C439.049 241.503 430.42 243 424 243L380 243z"/>
<path style="fill:#4b4b4b; stroke:none;" d="M465.667 243.333C465.222 243.778 466.278 243.722 466.333 243.667C466.778 243.222 465.722 243.278 465.667 243.333z"/>
<path style="fill:#dbdbdb; stroke:none;" d="M123.667 244.333C123.222 244.778 124.278 244.722 124.333 244.667C124.778 244.222 123.722 244.278 123.667 244.333z"/>
<path style="fill:#b8b8b8; stroke:none;" d="M125 244C126.248 244.685 126.548 244.749 128 245C126.752 244.315 126.452 244.251 125 244z"/>
<path style="fill:#767676; stroke:none;" d="M128 244L129 245L128 244z"/>
<path style="fill:#444444; stroke:none;" d="M290 244C296.194 246.599 305.314 245 312 245L361 245C354.806 242.401 345.686 244 339 244L290 244z"/>
<path style="fill:#575757; stroke:none;" d="M361 244C362.769 244.779 364.036 244.912 366 245C364.231 244.221 362.964 244.088 361 244z"/>
<path style="fill:#595959; stroke:none;" d="M379 244C385.678 246.802 395.784 245 403 245L455 245C448.322 242.198 438.216 244 431 244L379 244z"/>
<path style="fill:#636363; stroke:none;" d="M469 244C477.128 247.411 490.186 245 499 245C490.872 241.589 477.814 244 469 244z"/>
<path style="fill:#989898; stroke:none;" d="M118.667 245.333C118.222 245.778 119.278 245.722 119.333 245.667C119.778 245.222 118.722 245.278 118.667 245.333z"/>
<path style="fill:#636363; stroke:none;" d="M120.667 245.333C120.222 245.778 121.278 245.722 121.333 245.667C121.778 245.222 120.722 245.278 120.667 245.333z"/>
<path style="fill:#242424; stroke:none;" d="M176 245C179.163 246.327 182.586 246 186 246C182.837 244.673 179.414 245 176 245z"/>
<path style="fill:#4a4a4a; stroke:none;" d="M200 245L200 288C203.507 279.643 201 266.06 201 257C201 253.017 201.552 248.699 200 245z"/>
<path style="fill:#ffffff; stroke:none;" d="M201 245L201 292L277 292L277 245L201 245z"/>
<path style="fill:#f4f4f4; stroke:none;" d="M290 245L290 277C290 280.89 288.888 286.281 292 289C290.522 282.792 291 276.346 291 270C291 261.646 290.576 253.26 292 245L290 245z"/>
<path style="fill:#ffffff; stroke:none;" d="M291 246C291.882 259.702 288.093 275.781 292 289C290.217 289.98 290.406 289.908 290 292L366 292L366 245L317 245C308.688 245 298.999 243.636 291 246z"/>
<path style="fill:#676767; stroke:none;" d="M366 245L366 293C367.552 289.301 367 284.983 367 281L367 258C367 253.74 367.661 248.959 366 245z"/>
<path style="fill:#d5d5d5; stroke:none;" d="M379 245L379 292C380.552 288.301 380 283.983 380 280L380 258C380 253.74 380.661 248.959 379 245z"/>
<path style="fill:#ffffff; stroke:none;" d="M380 245L380 292L435 292C439.376 292 450.92 294.03 453.972 290.258C456.176 287.534 455 281.278 455 278L455 245L380 245z"/>
<path style="fill:#8b8b8b; stroke:none;" d="M455 245L455 292C456.552 288.301 456 283.983 456 280L456 258C456 253.74 456.661 248.959 455 245z"/>
<path style="fill:#adadad; stroke:none;" d="M468 245L468 289C469.552 285.301 469 280.983 469 277L469 256C469 252.298 469.441 248.435 468 245z"/>
<path style="fill:#ffffff; stroke:none;" d="M469 245L469 289C479.104 287.695 488.88 283.827 499 283L499 245L469 245z"/>
<path style="fill:#717171; stroke:none;" d="M499 245L499 283C500.441 279.565 500 275.702 500 272C500 263.993 502.105 252.4 499 245z"/>
<path style="fill:#a7a7a7; stroke:none;" d="M114 246L115 247L114 246z"/>
<path style="fill:#6c6c6c; stroke:none;" d="M172 246C173.506 246.683 174.315 246.826 176 247C174.494 246.317 173.685 246.174 172 246z"/>
<path style="fill:#939393; stroke:none;" d="M176 246C177.248 246.685 177.548 246.749 179 247C177.752 246.315 177.452 246.251 176 246z"/>
<path style="fill:#c3c3c3; stroke:none;" d="M179.667 246.333C179.222 246.778 180.278 246.722 180.333 246.667C180.778 246.222 179.722 246.278 179.667 246.333z"/>
<path style="fill:#e1e1e1; stroke:none;" d="M181 246C182.248 246.685 182.548 246.749 184 247C182.752 246.315 182.452 246.251 181 246z"/>
<path style="fill:#ffffff; stroke:none;" d="M124 324C129.575 324 135.639 324.687 141 322.895C153.099 318.851 159.634 308.061 170 301.443C173.77 299.036 177.788 297.352 181.995 295.882C183.98 295.188 186.391 294.767 187.397 292.686C189.143 289.072 188 282.929 188 279L188 246C176.392 246.916 164.544 247.06 153 248.576C149.704 249.008 144.448 248.025 141.649 250.028C137.115 253.272 135.952 263.919 134.629 269C131.441 281.246 128.448 293.491 126.438 306C125.478 311.975 125.402 318.113 124 324z"/>
<path style="fill:#2a2a2a; stroke:none;" d="M367 246L367 289C368.552 285.301 368 280.983 368 277C368 267.94 370.507 254.357 367 246z"/>
<path style="fill:#272727; stroke:none;" d="M378 246L378 282C377.996 284.745 376.17 292.026 378.067 294.129C379.856 296.112 390.148 294 393 294L440 294C434.293 291.605 426.154 293 420 293L379 293L379 262C379 256.92 379.981 250.72 378 246M500 246L500 282C501.441 278.565 501 274.702 501 271C501 263.52 502.903 252.919 500 246z"/>
<path style="fill:#cecece; stroke:none;" d="M111 247L112 248L111 247z"/>
<path style="fill:#5d5d5d; stroke:none;" d="M158.667 247.333C158.222 247.778 159.278 247.722 159.333 247.667C159.778 247.222 158.722 247.278 158.667 247.333z"/>
<path style="fill:#8b8b8b; stroke:none;" d="M160 247C161.248 247.685 161.548 247.749 163 248C161.752 247.315 161.452 247.251 160 247z"/>
<path style="fill:#bcbcbc; stroke:none;" d="M163.667 247.333C163.222 247.778 164.278 247.722 164.333 247.667C164.778 247.222 163.722 247.278 163.667 247.333z"/>
<path style="fill:#dbdbdb; stroke:none;" d="M165 247C166.248 247.685 166.548 247.749 168 248C166.752 247.315 166.452 247.251 165 247z"/>
<path style="fill:#1f1f1f; stroke:none;" d="M188 247C188 262.565 190.61 280.838 187 296C188.797 296 188.521 295.986 190 295C188.777 284.365 189 273.689 189 263C189 257.92 189.981 251.72 188 247z"/>
<path style="fill:#717171; stroke:none;" d="M146.667 248.333C146.222 248.778 147.278 248.722 147.333 248.667C147.778 248.222 146.722 248.278 146.667 248.333z"/>
<path style="fill:#9e9e9e; stroke:none;" d="M148.667 248.333C148.222 248.778 149.278 248.722 149.333 248.667C149.778 248.222 148.722 248.278 148.667 248.333z"/>
<path style="fill:#bfbfbf; stroke:none;" d="M150.667 248.333C150.222 248.778 151.278 248.722 151.333 248.667C151.778 248.222 150.722 248.278 150.667 248.333z"/>
<path style="fill:#e7e7e7; stroke:none;" d="M152.667 248.333C152.222 248.778 153.278 248.722 153.333 248.667C153.778 248.222 152.722 248.278 152.667 248.333z"/>
<path style="fill:#3f3f3f; stroke:none;" d="M277 248L277 293C278.661 289.041 278 284.26 278 280L278 260C278 256.017 278.552 251.699 277 248z"/>
<path style="fill:#202020; stroke:none;" d="M467 248L467 288C470.206 280.361 468 268.271 468 260C468 256.017 468.552 251.699 467 248z"/>
<path style="fill:#c4c4c4; stroke:none;" d="M108 249L109 250L108 249z"/>
<path style="fill:#737373; stroke:none;" d="M140 249L141 250L140 249z"/>
<path style="fill:#b8b8b8; stroke:none;" d="M107 250L108 251L107 250z"/>
<path style="fill:#202020; stroke:none;" d="M106 254C107.738 253.081 109.104 252.401 111 252C108.72 249.697 107.306 251.601 106 254z"/>
<path style="fill:#1e1e1e; stroke:none;" d="M128 250C130.052 250.874 131.747 250.953 134 251C131.948 250.126 130.253 250.047 128 250z"/>
<path style="fill:#bcbcbc; stroke:none;" d="M140 250L141 251L140 250z"/>
<path style="fill:#6f6f6f; stroke:none;" d="M124 251C125.506 251.683 126.315 251.826 128 252C126.494 251.317 125.685 251.174 124 251z"/>
<path style="fill:#a3a3a3; stroke:none;" d="M128 251C129.248 251.685 129.548 251.749 131 252C129.752 251.315 129.452 251.251 128 251z"/>
<path style="fill:#cecece; stroke:none;" d="M131 251C132.248 251.685 132.548 251.749 134 252C132.752 251.315 132.452 251.251 131 251z"/>
<path style="fill:#7e7e7e; stroke:none;" d="M134 251L135 252L134 251z"/>
<path style="fill:#717171; stroke:none;" d="M119 252L120 253L119 252z"/>
<path style="fill:#cacaca; stroke:none;" d="M120.667 252.333C120.222 252.778 121.278 252.722 121.333 252.667C121.778 252.222 120.722 252.278 120.667 252.333z"/>
<path style="fill:#8e8e8e; stroke:none;" d="M132 252L133 253L132 252z"/>
<path style="fill:#7e7e7e; stroke:none;" d="M139 252L140 253L139 252z"/>
<path style="fill:#7c7c7c; stroke:none;" d="M105 253L106 254L105 253z"/>
<path style="fill:#838383; stroke:none;" d="M118 253L119 254L118 253z"/>
<path style="fill:#c1c1c1; stroke:none;" d="M129 253L130 254L129 253z"/>
<path style="fill:#686868; stroke:none;" d="M130 253L131 254L130 253z"/>
<path style="fill:#c3c3c3; stroke:none;" d="M104 254L105 255L104 254z"/>
<path style="fill:#7a7a7a; stroke:none;" d="M117 254L118 255L117 254z"/>
<path style="fill:#d3d3d3; stroke:none;" d="M127 254L128 255L127 254z"/>
<path style="fill:#d1d1d1; stroke:none;" d="M125 255L126 256L125 255z"/>
<path style="fill:#6c6c6c; stroke:none;" d="M126 255L127 256L126 255z"/>
<path style="fill:#8d8d8d; stroke:none;" d="M138 255L139 256L138 255z"/>
<path style="fill:#b4b4b4; stroke:none;" d="M124 256L125 257L124 256z"/>
<path style="fill:#7b7b7b; stroke:none;" d="M103 257L104 258L103 257z"/>
<path style="fill:#818181; stroke:none;" d="M115 257L116 258L115 257z"/>
<path style="fill:#878787; stroke:none;" d="M124 257L125 258L124 257z"/>
<path style="fill:#131313; stroke:none;" d="M103.333 258.667C103.278 258.722 103.222 259.778 103.667 259.333C103.722 259.278 103.778 258.222 103.333 258.667z"/>
<path style="fill:#a0a0a0; stroke:none;" d="M137 258L138 259L137 258z"/>
<path style="fill:#b0b0b0; stroke:none;" d="M102 259L103 260L102 259z"/>
<path style="fill:#858585; stroke:none;" d="M114 259L115 260L114 259z"/>
<path style="fill:#d2d2d2; stroke:none;" d="M123 259L124 260L123 259z"/>
<path style="fill:#9b9b9b; stroke:none;" d="M123 260L124 261L123 260z"/>
<path style="fill:#6f6f6f; stroke:none;" d="M113 261L114 262L113 261z"/>
<path style="fill:#868686; stroke:none;" d="M136 261L137 262L136 261z"/>
<path style="fill:#a0a0a0; stroke:none;" d="M101 262L102 263L101 262z"/>
<path style="fill:#c6c6c6; stroke:none;" d="M113 262L114 263L113 262z"/>
<path style="fill:#d4d4d4; stroke:none;" d="M136 262L137 263L136 262z"/>
<path style="fill:#4c4c4c; stroke:none;" d="M101.667 263.333C101.222 263.778 102.278 263.722 102.333 263.667C102.778 263.222 101.722 263.278 101.667 263.333z"/>
<path style="fill:#c8c8c8; stroke:none;" d="M122 263L123 264L122 263z"/>
<path style="fill:#c3c3c3; stroke:none;" d="M112.333 264.667C112.278 264.722 112.222 265.778 112.667 265.333C112.722 265.278 112.778 264.222 112.333 264.667z"/>
<path style="fill:#555555; stroke:none;" d="M122.333 264.667C122.278 264.722 122.222 265.778 122.667 265.333C122.722 265.278 122.778 264.222 122.333 264.667z"/>
<path style="fill:#838383; stroke:none;" d="M135 264L136 265L135 264z"/>
<path style="fill:#afafaf; stroke:none;" d="M135 265L136 266L135 265z"/>
<path style="fill:#9e9e9e; stroke:none;" d="M100.333 266.667C100.278 266.722 100.222 267.778 100.667 267.333C100.722 267.278 100.778 266.222 100.333 266.667z"/>
<path style="fill:#212121; stroke:none;" d="M110 267C109.014 268.479 109 268.203 109 270C110.289 268.557 110.401 268.766 110 267z"/>
<path style="fill:#858585; stroke:none;" d="M111 267L112 268L111 267z"/>
<path style="fill:#b2b2b2; stroke:none;" d="M121 267L122 268L121 267z"/>
<path style="fill:#565656; stroke:none;" d="M100.333 268.667C100.278 268.722 100.222 269.778 100.667 269.333C100.722 269.278 100.778 268.222 100.333 268.667z"/>
<path style="fill:#4f4f4f; stroke:none;" d="M105.333 268.667C105.278 268.722 105.222 269.778 105.667 269.333C105.722 269.278 105.778 268.222 105.333 268.667z"/>
<path style="fill:#6f6f6f; stroke:none;" d="M121 268L122 269L121 268z"/>
<path style="fill:#919191; stroke:none;" d="M134 268L135 269L134 268z"/>
<path style="fill:#545454; stroke:none;" d="M110 269L111 270L110 269z"/>
<path style="fill:#cdcdcd; stroke:none;" d="M134 269L135 270L134 269z"/>
<path style="fill:#bcbcbc; stroke:none;" d="M110 270L111 271L110 270z"/>
<path style="fill:#cbcbcb; stroke:none;" d="M120 271L121 272L120 271z"/>
<path style="fill:#646464; stroke:none;" d="M133 271L134 272L133 271z"/>
<path style="fill:#cdcdcd; stroke:none;" d="M109 272L110 273L109 272z"/>
<path style="fill:#e2e2e2; stroke:none;" d="M133.333 272.667C133.278 272.722 133.222 273.778 133.667 273.333C133.722 273.278 133.778 272.222 133.333 272.667z"/>
<path style="fill:#c3c3c3; stroke:none;" d="M99.3333 273.667C99.2777 273.722 99.2222 274.778 99.6667 274.333C99.7221 274.278 99.7778 273.222 99.3333 273.667z"/>
<path style="fill:#b0b0b0; stroke:none;" d="M108 273L109 274L108 273z"/>
<path style="fill:#aeaeae; stroke:none;" d="M107 274L108 275L107 274z"/>
<path style="fill:#6e6e6e; stroke:none;" d="M105 275L106 276L105 275z"/>
<path style="fill:#c9c9c9; stroke:none;" d="M106 275L107 276L106 275z"/>
<path style="fill:#c5c5c5; stroke:none;" d="M119 275L120 276L119 275z"/>
<path style="fill:#6c6c6c; stroke:none;" d="M132 275L133 276L132 275z"/>
<path style="fill:#b8b8b8; stroke:none;" d="M100 276L101 277L100 276z"/>
<path style="fill:#727272; stroke:none;" d="M101 276C102.248 276.685 102.548 276.749 104 277C102.752 276.315 102.452 276.251 101 276z"/>
<path style="fill:#919191; stroke:none;" d="M119 276L120 277L119 276z"/>
<path style="fill:#a7a7a7; stroke:none;" d="M132 276L133 277L132 276z"/>
<path style="fill:#6b6b6b; stroke:none;" d="M131 279L132 280L131 279z"/>
<path style="fill:#7f7f7f; stroke:none;" d="M118.333 280.667C118.278 280.722 118.222 281.778 118.667 281.333C118.722 281.278 118.778 280.222 118.333 280.667z"/>
<path style="fill:#cccccc; stroke:none;" d="M131.333 280.667C131.278 280.722 131.222 281.778 131.667 281.333C131.722 281.278 131.778 280.222 131.333 280.667z"/>
<path style="fill:#616161; stroke:none;" d="M130 283L131 284L130 283z"/>
<path style="fill:#a7a7a7; stroke:none;" d="M494.667 283.333C494.222 283.778 495.278 283.722 495.333 283.667C495.778 283.222 494.722 283.278 494.667 283.333z"/>
<path style="fill:#cbcbcb; stroke:none;" d="M117 284L118 285L117 284z"/>
<path style="fill:#979797; stroke:none;" d="M130 284L131 285L130 284z"/>
<path style="fill:#bfbfbf; stroke:none;" d="M490 284L491 285L490 284z"/>
<path style="fill:#5b5b5b; stroke:none;" d="M491.667 284.333C491.222 284.778 492.278 284.722 492.333 284.667C492.778 284.222 491.722 284.278 491.667 284.333z"/>
<path style="fill:#979797; stroke:none;" d="M117 285L118 286L117 285z"/>
<path style="fill:#848484; stroke:none;" d="M486.667 285.333C486.222 285.778 487.278 285.722 487.333 285.667C487.778 285.222 486.722 285.278 486.667 285.333z"/>
<path style="fill:#939393; stroke:none;" d="M482 286L483 287L482 286z"/>
<path style="fill:#a6a6a6; stroke:none;" d="M477 287L478 288L477 287z"/>
<path style="fill:#515151; stroke:none;" d="M478.667 287.333C478.222 287.778 479.278 287.722 479.333 287.667C479.778 287.222 478.722 287.278 478.667 287.333z"/>
<path style="fill:#a0a0a0; stroke:none;" d="M129.333 288.667C129.278 288.722 129.222 289.778 129.667 289.333C129.722 289.278 129.778 288.222 129.333 288.667z"/>
<path style="fill:#909090; stroke:none;" d="M472.667 288.333C472.222 288.778 473.278 288.722 473.333 288.667C473.778 288.222 472.722 288.278 472.667 288.333z"/>
<path style="fill:#c2c2c2; stroke:none;" d="M116 289L117 290L116 289z"/>
<path style="fill:#4b4b4b; stroke:none;" d="M200 289L200 293C200.71 291.24 200.71 290.759 200 289z"/>
<path style="fill:#696969; stroke:none;" d="M468.667 289.333C468.222 289.778 469.278 289.722 469.333 289.667C469.778 289.222 468.722 289.278 468.667 289.333z"/>
<path style="fill:#909090; stroke:none;" d="M116 290L117 291L116 290z"/>
<path style="fill:#dddddd; stroke:none;" d="M453.667 291.333C453.222 291.778 454.278 291.722 454.333 291.667C454.778 291.222 453.722 291.278 453.667 291.333z"/>
<path style="fill:#dedede; stroke:none;" d="M201 292C202.248 292.685 202.548 292.749 204 293C202.752 292.315 202.452 292.251 201 292z"/>
<path style="fill:#bbbbbb; stroke:none;" d="M204 292C205.506 292.683 206.315 292.826 208 293C206.494 292.317 205.685 292.174 204 292z"/>
<path style="fill:#a2a2a2; stroke:none;" d="M208 292C214.194 294.599 223.314 293 230 293L277 293C270.806 290.401 261.686 292 255 292L208 292M290 292C296.678 294.802 306.784 293 314 293L366 293C359.322 290.198 349.216 292 342 292L290 292M379 292C384.707 294.395 392.846 293 399 293L443 293C437.293 290.605 429.154 292 423 292L379 292z"/>
<path style="fill:#757575; stroke:none;" d="M443 292C444.769 292.779 446.036 292.912 448 293C446.231 292.221 444.964 292.088 443 292z"/>
<path style="fill:#505050; stroke:none;" d="M448.667 292.333C448.222 292.778 449.278 292.722 449.333 292.667C449.778 292.222 448.722 292.278 448.667 292.333z"/>
<path style="fill:#7b7b7b; stroke:none;" d="M128 293L129 294L128 293z"/>
<path style="fill:#272727; stroke:none;" d="M202 295C211.168 293.298 220.705 294 230 294L275 294C269.784 291.811 262.619 293 257 293L220 293C215.099 293 205.407 291.101 202 295M292 293C298.436 295.701 308.049 294 315 294L364 294C357.564 291.299 347.951 293 341 293L292 293z"/>
<path style="fill:#b1b1b1; stroke:none;" d="M115.333 294.667C115.278 294.722 115.222 295.778 115.667 295.333C115.722 295.278 115.778 294.222 115.333 294.667z"/>
<path style="fill:#dfdfdf; stroke:none;" d="M128.333 294.667C128.278 294.722 128.222 295.778 128.667 295.333C128.722 295.278 128.778 294.222 128.333 294.667z"/>
<path style="fill:#b1b1b1; stroke:none;" d="M187 294L188 295L187 294z"/>
<path style="fill:#bdbdbd; stroke:none;" d="M182.667 295.333C182.222 295.778 183.278 295.722 183.333 295.667C183.778 295.222 182.722 295.278 182.667 295.333z"/>
<path style="fill:#505050; stroke:none;" d="M115.333 296.667C115.278 296.722 115.222 297.778 115.667 297.333C115.722 297.278 115.778 296.222 115.333 296.667z"/>
<path style="fill:#979797; stroke:none;" d="M180 296L181 297L180 296z"/>
<path style="fill:#9e9e9e; stroke:none;" d="M177 297L178 298L177 297z"/>
<path style="fill:#1e1e1e; stroke:none;" d="M126 298L126 302C126.71 300.241 126.71 299.759 126 298z"/>
<path style="fill:#7a7a7a; stroke:none;" d="M127 298L128 299L127 298z"/>
<path style="fill:#c9c9c9; stroke:none;" d="M174 298L175 299L174 298z"/>
<path style="fill:#d2d2d2; stroke:none;" d="M127.333 299.667C127.278 299.722 127.222 300.778 127.667 300.333C127.722 300.278 127.778 299.222 127.333 299.667z"/>
<path style="fill:#b7b7b7; stroke:none;" d="M114 300L115 301L114 300z"/>
<path style="fill:#686868; stroke:none;" d="M171 300L172 301L171 300z"/>
<path style="fill:#8b8b8b; stroke:none;" d="M114 301L115 302L114 301z"/>
<path style="fill:#8f8f8f; stroke:none;" d="M169 301L170 302L169 301z"/>
<path style="fill:#454545; stroke:none;" d="M114.333 302.667C114.278 302.722 114.222 303.778 114.667 303.333C114.722 303.278 114.778 302.222 114.333 302.667z"/>
<path style="fill:#a3a3a3; stroke:none;" d="M166 303L167 304L166 303z"/>
<path style="fill:#a5a5a5; stroke:none;" d="M126.333 304.667C126.278 304.722 126.222 305.778 126.667 305.333C126.722 305.278 126.778 304.222 126.333 304.667z"/>
<path style="fill:#747474; stroke:none;" d="M165 304L166 305L165 304z"/>
<path style="fill:#595959; stroke:none;" d="M164 305L165 306L164 305z"/>
<path style="fill:#aaaaaa; stroke:none;" d="M113 306L114 307L113 306z"/>
<path style="fill:#626262; stroke:none;" d="M163 306L164 307L163 306z"/>
<path style="fill:#5b5b5b; stroke:none;" d="M113.333 307.667C113.278 307.722 113.222 308.778 113.667 308.333C113.722 308.278 113.778 307.222 113.333 307.667z"/>
<path style="fill:#555555; stroke:none;" d="M162 307L163 308L162 307z"/>
<path style="fill:#d3d3d3; stroke:none;" d="M160 308L161 309L160 308z"/>
<path style="fill:#dddddd; stroke:none;" d="M112.333 310.667C112.278 310.722 112.222 311.778 112.667 311.333C112.722 311.278 112.778 310.222 112.333 310.667z"/>
<path style="fill:#9b9b9b; stroke:none;" d="M125.333 310.667C125.278 310.722 125.222 311.778 125.667 311.333C125.722 311.278 125.778 310.222 125.333 310.667z"/>
<path style="fill:#d2d2d2; stroke:none;" d="M158 310L159 311L158 310z"/>
<path style="fill:#8e8e8e; stroke:none;" d="M159 310L160 311L159 310z"/>
<path style="fill:#929292; stroke:none;" d="M158 311L159 312L158 311z"/>
<path style="fill:#949494; stroke:none;" d="M112 312L112 315C112.696 313.446 112.696 313.554 112 312z"/>
<path style="fill:#d8d8d8; stroke:none;" d="M125.333 312.667C125.278 312.722 125.222 313.778 125.667 313.333C125.722 313.278 125.778 312.222 125.333 312.667z"/>
<path style="fill:#7e7e7e; stroke:none;" d="M157 312L158 313L157 312z"/>
<path style="fill:#7c7c7c; stroke:none;" d="M156 313L157 314L156 313z"/>
<path style="fill:#767676; stroke:none;" d="M155 314L156 315L155 314z"/>
<path style="fill:#727272; stroke:none;" d="M154 315L155 316L154 315z"/>
<path style="fill:#737373; stroke:none;" d="M124.333 316.667C124.278 316.722 124.222 317.778 124.667 317.333C124.722 317.278 124.778 316.222 124.333 316.667z"/>
<path style="fill:#d3d3d3; stroke:none;" d="M152 316L153 317L152 316z"/>
<path style="fill:#c9c9c9; stroke:none;" d="M111 317L111 320C111.696 318.446 111.696 318.554 111 317z"/>
<path style="fill:#a5a5a5; stroke:none;" d="M151 317L152 318L151 317z"/>
<path style="fill:#a7a7a7; stroke:none;" d="M124.333 318.667C124.278 318.722 124.222 319.778 124.667 319.333C124.722 319.278 124.778 318.222 124.333 318.667z"/>
<path style="fill:#878787; stroke:none;" d="M150 318L151 319L150 318z"/>
<path style="fill:#b5b5b5; stroke:none;" d="M148 319L149 320L148 319z"/>
<path style="fill:#666666; stroke:none;" d="M111.333 320.667C111.278 320.722 111.222 321.778 111.667 321.333C111.722 321.278 111.778 320.222 111.333 320.667z"/>
<path style="fill:#dcdcdc; stroke:none;" d="M124 320L124 323C124.696 321.446 124.696 321.554 124 320z"/>
<path style="fill:#c6c6c6; stroke:none;" d="M146 320L147 321L146 320z"/>
<path style="fill:#aaaaaa; stroke:none;" d="M144 321L145 322L144 321z"/>
<path style="fill:#6b6b6b; stroke:none;" d="M145 321L146 322L145 321z"/>
<path style="fill:#a5a5a5; stroke:none;" d="M142 322L143 323L142 322z"/>
<path style="fill:#484848; stroke:none;" d="M143.667 322.333C143.222 322.778 144.278 322.722 144.333 322.667C144.778 322.222 143.722 322.278 143.667 322.333z"/>
<path style="fill:#0e0e0e; stroke:none;" d="M145.667 322.333C145.222 322.778 146.278 322.722 146.333 322.667C146.778 322.222 145.722 322.278 145.667 322.333z"/>
<path style="fill:#bababa; stroke:none;" d="M139 323L140 324L139 323z"/>
<path style="fill:#6c6c6c; stroke:none;" d="M140 323L141 324L140 323z"/>
<path style="fill:#494949; stroke:none;" d="M141 323C141.98 324.783 141.908 324.594 144 325C142.861 323.985 142.388 323.691 141 323z"/>
<path style="fill:#d9d9d9; stroke:none;" d="M110.333 324.667C110.278 324.722 110.222 325.778 110.667 325.333C110.722 325.278 110.778 324.222 110.333 324.667z"/>
<path style="fill:#aeaeae; stroke:none;" d="M124 324C127.697 325.552 132.017 325 136 325C132.303 323.448 127.983 324 124 324z"/>
<path style="fill:#545454; stroke:none;" d="M136.667 324.333C136.222 324.778 137.278 324.722 137.333 324.667C137.778 324.222 136.722 324.278 136.667 324.333z"/>
<path style="fill:#bababa; stroke:none;" d="M110.333 326.667C110.278 326.722 110.222 327.778 110.667 327.333C110.722 327.278 110.778 326.222 110.333 326.667z"/>
<path style="fill:#808080; stroke:none;" d="M110 328L110 358C111.328 354.834 111 351.419 111 348C111 341.846 112.395 333.707 110 328z"/>
<path style="fill:#6a6a6a; stroke:none;" d="M184.667 329.333C184.222 329.778 185.278 329.722 185.333 329.667C185.778 329.222 184.722 329.278 184.667 329.333z"/>
<path style="fill:#acacac; stroke:none;" d="M186.667 329.333C186.222 329.778 187.278 329.722 187.333 329.667C187.778 329.222 186.722 329.278 186.667 329.333z"/>
<path style="fill:#dadada; stroke:none;" d="M188.667 329.333C188.222 329.778 189.278 329.722 189.333 329.667C189.778 329.222 188.722 329.278 188.667 329.333z"/>
<path style="fill:#cecece; stroke:none;" d="M194 329C195.248 329.685 195.548 329.749 197 330C195.752 329.315 195.452 329.251 194 329z"/>
<path style="fill:#787878; stroke:none;" d="M197 329C198.248 329.685 198.548 329.749 200 330C198.752 329.315 198.452 329.251 197 329z"/>
<path style="fill:#212121; stroke:none;" d="M200 329C202.819 330.772 205.714 331.515 209 332C206.201 329.917 203.458 329.304 200 329z"/>
<path style="fill:#828282; stroke:none;" d="M388.667 329.333C388.222 329.778 389.278 329.722 389.333 329.667C389.778 329.222 388.722 329.278 388.667 329.333z"/>
<path style="fill:#cdcdcd; stroke:none;" d="M390.667 329.333C390.222 329.778 391.278 329.722 391.333 329.667C391.778 329.222 390.722 329.278 390.667 329.333z"/>
<path style="fill:#d4d4d4; stroke:none;" d="M398.667 329.333C398.222 329.778 399.278 329.722 399.333 329.667C399.778 329.222 398.722 329.278 398.667 329.333z"/>
<path style="fill:#808080; stroke:none;" d="M400.667 329.333C400.222 329.778 401.278 329.722 401.333 329.667C401.778 329.222 400.722 329.278 400.667 329.333z"/>
<path style="fill:#282828; stroke:none;" d="M111 330L111 352C113.219 346.713 113.219 335.287 111 330z"/>
<path style="fill:#626262; stroke:none;" d="M181 330L182 331L181 330z"/>
<path style="fill:#a6a6a6; stroke:none;" d="M182 330L183 331L182 330z"/>
<path style="fill:#d1d1d1; stroke:none;" d="M201 330L202 331L201 330z"/>
<path style="fill:#8c8c8c; stroke:none;" d="M202 330L203 331L202 330z"/>
<path style="fill:#717171; stroke:none;" d="M384 330L385 331L384 330z"/>
<path style="fill:#9d9d9d; stroke:none;" d="M385 330L386 331L385 330z"/>
<path style="fill:#cbcbcb; stroke:none;" d="M404 330L405 331L404 330z"/>
<path style="fill:#8f8f8f; stroke:none;" d="M405 330L406 331L405 330z"/>
<path style="fill:#262626; stroke:none;" d="M170 336C172.834 334.772 174.427 333.662 176 331C172.803 331.805 171.054 332.825 170 336z"/>
<path style="fill:#919191; stroke:none;" d="M179 331L180 332L179 331z"/>
<path style="fill:#cecece; stroke:none;" d="M204 331L205 332L204 331z"/>
<path style="fill:#838383; stroke:none;" d="M205 331L206 332L205 331z"/>
<path style="fill:#909090; stroke:none;" d="M382 331L383 332L382 331M408 331L409 332L408 331z"/>
<path style="fill:#515151; stroke:none;" d="M409 331L410 332L409 331z"/>
<path style="fill:#606060; stroke:none;" d="M176 332L177 333L176 332z"/>
<path style="fill:#ababab; stroke:none;" d="M177 332L178 333L177 332z"/>
<path style="fill:#b1b1b1; stroke:none;" d="M206.667 332.333C206.222 332.778 207.278 332.722 207.333 332.667C207.778 332.222 206.722 332.278 206.667 332.333M380 332L381 333L380 332z"/>
<path style="fill:#979797; stroke:none;" d="M410 332L411 333L410 332z"/>
<path style="fill:#686868; stroke:none;" d="M174 333L175 334L174 333z"/>
<path style="fill:#acacac; stroke:none;" d="M175 333L176 334L175 333z"/>
<path style="fill:#7c7c7c; stroke:none;" d="M209 333L210 334L209 333z"/>
<path style="fill:#252525; stroke:none;" d="M372 337L377 334C374.012 333.017 372.937 334.15 372 337z"/>
<path style="fill:#b8b8b8; stroke:none;" d="M378 333L379 334L378 333z"/>
<path style="fill:#888888; stroke:none;" d="M412 333L413 334L412 333z"/>
<path style="fill:#868686; stroke:none;" d="M173 334L174 335L173 334z"/>
<path style="fill:#c5c5c5; stroke:none;" d="M210 334L211 335L210 334z"/>
<path style="fill:#858585; stroke:none;" d="M376 334L377 335L376 334z"/>
<path style="fill:#c6c6c6; stroke:none;" d="M377 334L378 335L377 334z"/>
<path style="fill:#7a7a7a; stroke:none;" d="M414 334L415 335L414 334z"/>
<path style="fill:#b4b4b4; stroke:none;" d="M172 335L173 336L172 335z"/>
<path style="fill:#8e8e8e; stroke:none;" d="M187.667 335.333C187.222 335.778 188.278 335.722 188.333 335.667C188.778 335.222 187.722 335.278 187.667 335.333z"/>
<path style="fill:#616161; stroke:none;" d="M189 335C191.052 335.874 192.747 335.953 195 336C192.948 335.126 191.253 335.047 189 335z"/>
<path style="fill:#bbbbbb; stroke:none;" d="M195.667 335.333C195.222 335.778 196.278 335.722 196.333 335.667C196.778 335.222 195.722 335.278 195.667 335.333z"/>
<path style="fill:#8e8e8e; stroke:none;" d="M212 335L213 336L212 335z"/>
<path style="fill:#151515; stroke:none;" d="M213.667 335.333C213.222 335.778 214.278 335.722 214.333 335.667C214.778 335.222 213.722 335.278 213.667 335.333z"/>
<path style="fill:#575757; stroke:none;" d="M374 335L375 336L374 335z"/>
<path style="fill:#919191; stroke:none;" d="M375 335L376 336L375 335z"/>
<path style="fill:#a1a1a1; stroke:none;" d="M390.667 335.333C390.222 335.778 391.278 335.722 391.333 335.667C391.778 335.222 390.722 335.278 390.667 335.333z"/>
<path style="fill:#636363; stroke:none;" d="M392 335C394.052 335.874 395.747 335.953 398 336C395.948 335.126 394.253 335.047 392 335z"/>
<path style="fill:#a7a7a7; stroke:none;" d="M398.667 335.333C398.222 335.778 399.278 335.722 399.333 335.667C399.778 335.222 398.722 335.278 398.667 335.333z"/>
<path style="fill:#b7b7b7; stroke:none;" d="M415 335L416 336L415 335z"/>
<path style="fill:#747474; stroke:none;" d="M170 336L171 337L170 336z"/>
<path style="fill:#a9a9a9; stroke:none;" d="M183 336L184 337L183 336z"/>
<path style="fill:#333333; stroke:none;" d="M175 381C173.132 386.604 180.194 384.755 183 387L182 388C192.462 386.507 203.57 389.739 211.696 380.907C222.214 369.475 220.756 349.855 207.996 340.638C202.036 336.333 195.132 335.634 188 336.043C172.915 336.908 163.095 353.018 165.616 367C166.745 373.264 168.909 378.397 175 381z"/>
<path style="fill:#646464; stroke:none;" d="M199 336L200 337L199 336z"/>
<path style="fill:#bababa; stroke:none;" d="M200 336L201 337L200 336z"/>
<path style="fill:#b2b2b2; stroke:none;" d="M213 336L214 337L213 336z"/>
<path style="fill:#545454; stroke:none;" d="M214 336L215 337L214 336z"/>
<path style="fill:#5e5e5e; stroke:none;" d="M373 336L374 337L373 336z"/>
<path style="fill:#aeaeae; stroke:none;" d="M386 336L387 337L386 336z"/>
<path style="fill:#494949; stroke:none;" d="M387.667 336.333C387.222 336.778 388.278 336.722 388.333 336.667C388.778 336.222 387.722 336.278 387.667 336.333z"/>
<path style="fill:#2a2a2a; stroke:none;" d="M378 343C387.662 338.517 396.936 334.212 406.981 340.479C411.086 343.04 413.464 347.055 418 349C411.658 336.809 386.779 328.688 378 343z"/>
<path style="fill:#696969; stroke:none;" d="M402 336L403 337L402 336z"/>
<path style="fill:#b3b3b3; stroke:none;" d="M403 336L404 337L403 336z"/>
<path style="fill:#9e9e9e; stroke:none;" d="M169 337L170 338L169 337z"/>
<path style="fill:#797979; stroke:none;" d="M181 337L182 338L181 337z"/>
<path style="fill:#919191; stroke:none;" d="M202 337L203 338L202 337z"/>
<path style="fill:#c6c6c6; stroke:none;" d="M214 337L215 338L214 337z"/>
<path style="fill:#202020; stroke:none;" d="M217 340C218.923 339.098 218.999 338.924 220 337C217.876 337.899 217.899 337.876 217 340z"/>
<path style="fill:#787878; stroke:none;" d="M372 337L373 338L372 337z"/>
<path style="fill:#cccccc; stroke:none;" d="M383 337L384 338L383 337z"/>
<path style="fill:#575757; stroke:none;" d="M384.667 337.333C384.222 337.778 385.278 337.722 385.333 337.667C385.778 337.222 384.722 337.278 384.667 337.333z"/>
<path style="fill:#333333; stroke:none;" d="M419 371C421.977 368.483 421.227 364.661 421.32 361C421.622 349.129 408.757 337.541 397 337.041C391.461 336.805 386.059 338.603 381.09 340.929C375.841 343.386 372.65 346.529 370.465 352.004C364.601 366.691 372.789 386.838 390.17 388.567C401.14 389.659 419.629 385.097 419 371z"/>
<path style="fill:#767676; stroke:none;" d="M405 337L406 338L405 337z"/>
<path style="fill:#cdcdcd; stroke:none;" d="M406 337L407 338L406 337z"/>
<path style="fill:#5d5d5d; stroke:none;" d="M418 337L419 338L418 337z"/>
<path style="fill:#959595; stroke:none;" d="M168 338L169 339L168 338z"/>
<path style="fill:#d4d4d4; stroke:none;" d="M178 338L179 339L178 338z"/>
<path style="fill:#686868; stroke:none;" d="M179 338L180 339L179 338z"/>
<path style="fill:#848484; stroke:none;" d="M204 338L205 339L204 338z"/>
<path style="fill:#676767; stroke:none;" d="M216 338L217 339L216 338z"/>
<path style="fill:#4c4c4c; stroke:none;" d="M222.333 338.667C222.278 338.722 222.222 339.778 222.667 339.333C222.722 339.278 222.778 338.222 222.333 338.667z"/>
<path style="fill:#737373; stroke:none;" d="M371 338L372 339L371 338z"/>
<path style="fill:#868686; stroke:none;" d="M382 338L383 339L382 338z"/>
<path style="fill:#5c5c5c; stroke:none;" d="M407 338L408 339L407 338z"/>
<path style="fill:#c0c0c0; stroke:none;" d="M408 338L409 339L408 338z"/>
<path style="fill:#9c9c9c; stroke:none;" d="M167 339L168 340L167 339z"/>
<path style="fill:#898989; stroke:none;" d="M177 339L178 340L177 339z"/>
<path style="fill:#949494; stroke:none;" d="M206 339L207 340L206 339z"/>
<path style="fill:#7b7b7b; stroke:none;" d="M370 339L371 340L370 339z"/>
<path style="fill:#9d9d9d; stroke:none;" d="M380 339L381 340L380 339z"/>
<path style="fill:#909090; stroke:none;" d="M409 339L410 340L409 339z"/>
<path style="fill:#6c6c6c; stroke:none;" d="M420 339L421 340L420 339z"/>
<path style="fill:#868686; stroke:none;" d="M166 340L167 341L166 340z"/>
<path style="fill:#c1c1c1; stroke:none;" d="M175 340L176 341L175 340z"/>
<path style="fill:#232323; stroke:none;" d="M181.667 340.333C181.222 340.778 182.278 340.722 182.333 340.667C182.778 340.222 181.722 340.278 181.667 340.333z"/>
<path style="fill:#5d5d5d; stroke:none;" d="M218 340L219 341L218 340z"/>
<path style="fill:#4d4d4d; stroke:none;" d="M230 340L230 344C231.073 342.118 231.084 341.863 230 340z"/>
<path style="fill:#737373; stroke:none;" d="M369 340L370 341L369 340z"/>
<path style="fill:#717171; stroke:none;" d="M379 340L380 341L379 340z"/>
<path style="fill:#4f4f4f; stroke:none;" d="M410 340L411 341L410 340z"/>
<path style="fill:#c0c0c0; stroke:none;" d="M411 340L412 341L411 340z"/>
<path style="fill:#707070; stroke:none;" d="M433 340L434 341L433 340z"/>
<path style="fill:#585858; stroke:none;" d="M511 340L512 341L511 340z"/>
<path style="fill:#7c7c7c; stroke:none;" d="M165 341L166 342L165 341z"/>
<path style="fill:#909090; stroke:none;" d="M174 341L175 342L174 341z"/>
<path style="fill:#bebebe; stroke:none;" d="M209 341L210 342L209 341z"/>
<path style="fill:#c1c1c1; stroke:none;" d="M218 341L219 342L218 341z"/>
<path style="fill:#202020; stroke:none;" d="M366 341L365 345C366.434 343.607 367.045 342.767 368 341L366 341z"/>
<path style="fill:#696969; stroke:none;" d="M368 341L369 342L368 341z"/>
<path style="fill:#b3b3b3; stroke:none;" d="M377 341L378 342L377 341z"/>
<path style="fill:#a8a8a8; stroke:none;" d="M412 341L413 342L412 341M433 341L433 343L435 343C434.455 341.365 434.635 341.545 433 341z"/>
<path style="fill:#5c5c5c; stroke:none;" d="M434 341L435 342L434 341z"/>
<path style="fill:#b3b3b3; stroke:none;" d="M511 341L512 342L511 341z"/>
<path style="fill:#666666; stroke:none;" d="M164 342L165 343L164 342z"/>
<path style="fill:#959595; stroke:none;" d="M173 342L174 343L173 342z"/>
<path style="fill:#999999; stroke:none;" d="M210 342L211 343L210 342z"/>
<path style="fill:#bbbbbb; stroke:none;" d="M219 342L220 343L219 342z"/>
<path style="fill:#848484; stroke:none;" d="M231 342L232 343L231 342z"/>
<path style="fill:#525252; stroke:none;" d="M367 342L368 343L367 342z"/>
<path style="fill:#939393; stroke:none;" d="M376 342L377 343L376 342z"/>
<path style="fill:#999999; stroke:none;" d="M413 342L414 343L413 342z"/>
<path style="fill:#7b7b7b; stroke:none;" d="M510 342L511 343L510 342z"/>
<path style="fill:#848484; stroke:none;" d="M172 343L173 344L172 343z"/>
<path style="fill:#bbbbbb; stroke:none;" d="M211 343L212 344L211 343z"/>
<path style="fill:#929292; stroke:none;" d="M220 343L221 344L220 343z"/>
<path style="fill:#b5b5b5; stroke:none;" d="M231 343L232 344L231 343z"/>
<path style="fill:#adadad; stroke:none;" d="M367 343L368 344L367 343z"/>
<path style="fill:#bcbcbc; stroke:none;" d="M375 343L376 344L375 343z"/>
<path style="fill:#8f8f8f; stroke:none;" d="M414 343L415 344L414 343z"/>
<path style="fill:#c7c7c7; stroke:none;" d="M423 343L424 344L423 343z"/>
<path style="fill:#060606; stroke:none;" d="M433.333 343.667C433.278 343.722 433.222 344.778 433.667 344.333C433.722 344.278 433.778 343.222 433.333 343.667z"/>
<path style="fill:#e0e0e0; stroke:none;" d="M434 343L435 344L434 343z"/>
<path style="fill:#9c9c9c; stroke:none;" d="M435 343L436 344L435 343z"/>
<path style="fill:#616161; stroke:none;" d="M509 343L510 344L509 343z"/>
<path style="fill:#8d8d8d; stroke:none;" d="M171 344L172 345L171 344z"/>
<path style="fill:#bbbbbb; stroke:none;" d="M212 344L213 345L212 344z"/>
<path style="fill:#565656; stroke:none;" d="M221 344L222 345L221 344z"/>
<path style="fill:#6b6b6b; stroke:none;" d="M231 344L232 345L231 344z"/>
<path style="fill:#ececec; stroke:none;" d="M232 344C232.776 346.132 233.13 346.771 235 348C234.045 346.233 233.434 345.393 232 344z"/>
<path style="fill:#aeaeae; stroke:none;" d="M366 344L367 345L366 344z"/>
<path style="fill:#b7b7b7; stroke:none;" d="M374 344L375 345L374 344z"/>
<path style="fill:#787878; stroke:none;" d="M415 344L416 345L415 344z"/>
<path style="fill:#8e8e8e; stroke:none;" d="M424 344L425 345L424 344z"/>
<path style="fill:#000000; stroke:none;" d="M425 344L426 345L425 344z"/>
<path style="fill:#797979; stroke:none;" d="M434 344L435 345L434 344z"/>
<path style="fill:#dcdcdc; stroke:none;" d="M435 344L435 346L437 346C436.455 344.365 436.635 344.545 435 344z"/>
<path style="fill:#656565; stroke:none;" d="M436 344L437 345L436 344z"/>
<path style="fill:#8c8c8c; stroke:none;" d="M508 344L509 345L508 344z"/>
<path style="fill:#717171; stroke:none;" d="M162 345L163 346L162 345z"/>
<path style="fill:#ababab; stroke:none;" d="M170 345L171 346L170 345z"/>
<path style="fill:#c4c4c4; stroke:none;" d="M213 345L214 346L213 345z"/>
<path style="fill:#d2d2d2; stroke:none;" d="M221 345L222 346L221 345z"/>
<path style="fill:#0c0c0c; stroke:none;" d="M234 345L235 346L234 345z"/>
<path style="fill:#606060; stroke:none;" d="M365 345L366 346L365 345z"/>
<path style="fill:#b5b5b5; stroke:none;" d="M373 345L374 346L373 345z"/>
<path style="fill:#565656; stroke:none;" d="M374 345L375 346L374 345z"/>
<path style="fill:#aeaeae; stroke:none;" d="M416 345L417 346L416 345z"/>
<path style="fill:#5a5a5a; stroke:none;" d="M425 345L426 346L425 345z"/>
<path style="fill:#626262; stroke:none;" d="M505 345L506 346L505 345z"/>
<path style="fill:#aeaeae; stroke:none;" d="M506 345L507 346L506 345z"/>
<path style="fill:#484848; stroke:none;" d="M170 346L171 347L170 346z"/>
<path style="fill:#909090; stroke:none;" d="M222 346L223 347L222 346z"/>
<path style="fill:#888888; stroke:none;" d="M232 346L233 347L232 346z"/>
<path style="fill:#606060; stroke:none;" d="M234 346L235 347L234 346z"/>
<path style="fill:#c0c0c0; stroke:none;" d="M365 346L366 347L365 346z"/>
<path style="fill:#c4c4c4; stroke:none;" d="M425 346L426 347L425 346z"/>
<path style="fill:#797979; stroke:none;" d="M435 346L436 347L435 346z"/>
<path style="fill:#b9b9b9; stroke:none;" d="M437 346L438 347L437 346z"/>
<path style="fill:#0e0e0e; stroke:none;" d="M499 346C500.248 346.685 500.548 346.749 502 347C500.752 346.315 500.452 346.251 499 346z"/>
<path style="fill:#5e5e5e; stroke:none;" d="M502 346L503 347L502 346z"/>
<path style="fill:#8c8c8c; stroke:none;" d="M503 346L504 347L503 346z"/>
<path style="fill:#8f8f8f; stroke:none;" d="M161 347L162 348L161 347z"/>
<path style="fill:#696969; stroke:none;" d="M169 347L170 348L169 347z"/>
<path style="fill:#888888; stroke:none;" d="M214 347L215 348L214 347z"/>
<path style="fill:#797979; stroke:none;" d="M364 347L365 348L364 347z"/>
<path style="fill:#878787; stroke:none;" d="M372 347L373 348L372 347z"/>
<path style="fill:#6c6c6c; stroke:none;" d="M417 347L418 348L417 347z"/>
<path style="fill:#696969; stroke:none;" d="M426 347L427 348L426 347z"/>
<path style="fill:#959595; stroke:none;" d="M438 347L439 348L438 347z"/>
<path style="fill:#777777; stroke:none;" d="M499 347L500 348L499 347z"/>
<path style="fill:#bcbcbc; stroke:none;" d="M500 347L501 348L500 347z"/>
<path style="fill:#acacac; stroke:none;" d="M168 348L169 349L168 348z"/>
<path style="fill:#d1d1d1; stroke:none;" d="M215 348L216 349L215 348z"/>
<path style="fill:#ababab; stroke:none;" d="M223 348L224 349L223 348z"/>
<path style="fill:#919191; stroke:none;" d="M233 348L234 349L233 348z"/>
<path style="fill:#c4c4c4; stroke:none;" d="M235 348L236 349L235 348z"/>
<path style="fill:#cbcbcb; stroke:none;" d="M371 348L372 349L371 348z"/>
<path style="fill:#b7b7b7; stroke:none;" d="M418 348L419 349L418 348z"/>
<path style="fill:#cccccc; stroke:none;" d="M426 348L427 349L426 348z"/>
<path style="fill:#181818; stroke:none;" d="M435 348L435 351C435.696 349.446 435.696 349.554 435 348z"/>
<path style="fill:#c8c8c8; stroke:none;" d="M436 348L437 349L436 348z"/>
<path style="fill:#5a5a5a; stroke:none;" d="M439 348L440 349L439 348z"/>
<path style="fill:#272727; stroke:none;" d="M440 348C441.366 350.711 442.031 351.486 445 352C443.44 350.112 442.196 349.072 440 348z"/>
<path style="fill:#575757; stroke:none;" d="M494.667 348.333C494.222 348.778 495.278 348.722 495.333 348.667C495.778 348.222 494.722 348.278 494.667 348.333z"/>
<path style="fill:#a0a0a0; stroke:none;" d="M496 348L497 349L496 348z"/>
<path style="fill:#d0d0d0; stroke:none;" d="M497 348L498 349L497 348z"/>
<path style="fill:#8b8b8b; stroke:none;" d="M160 349L161 350L160 349z"/>
<path style="fill:#1c1c1c; stroke:none;" d="M171.333 349.667C171.278 349.722 171.222 350.778 171.667 350.333C171.722 350.278 171.778 349.222 171.333 349.667z"/>
<path style="fill:#5f5f5f; stroke:none;" d="M215 349L216 350L215 349z"/>
<path style="fill:#929292; stroke:none;" d="M236 349L237 350L236 349z"/>
<path style="fill:#565656; stroke:none;" d="M371 349L372 350L371 349z"/>
<path style="fill:#9a9a9a; stroke:none;" d="M436 349L437 350L436 349z"/>
<path style="fill:#727272; stroke:none;" d="M491 349L492 350L491 349z"/>
<path style="fill:#a2a2a2; stroke:none;" d="M492 349L493 350L492 349z"/>
<path style="fill:#a0a0a0; stroke:none;" d="M167 350L168 351L167 350z"/>
<path style="fill:#b8b8b8; stroke:none;" d="M216 350L217 351L216 350z"/>
<path style="fill:#6c6c6c; stroke:none;" d="M224 350L225 351L224 350z"/>
<path style="fill:#9e9e9e; stroke:none;" d="M363 350L364 351L363 350z"/>
<path style="fill:#bfbfbf; stroke:none;" d="M370 350L371 351L370 350z"/>
<path style="fill:#a8a8a8; stroke:none;" d="M419 350L420 351L419 350z"/>
<path style="fill:#919191; stroke:none;" d="M427 350L428 351L427 350z"/>
<path style="fill:#585858; stroke:none;" d="M436 350L437 351L436 350z"/>
<path style="fill:#acacac; stroke:none;" d="M440 350L441 351L440 350z"/>
<path style="fill:#606060; stroke:none;" d="M485 350C486.248 350.685 486.548 350.749 488 351C486.752 350.315 486.452 350.251 485 350z"/>
<path style="fill:#e1e1e1; stroke:none;" d="M488.667 350.333C488.222 350.778 489.278 350.722 489.333 350.667C489.778 350.222 488.722 350.278 488.667 350.333z"/>
<path style="fill:#848484; stroke:none;" d="M189 351C190.769 351.779 192.036 351.912 194 352C192.231 351.221 190.964 351.088 189 351z"/>
<path style="fill:#a3a3a3; stroke:none;" d="M224 351L225 352L224 351z"/>
<path style="fill:#b3b3b3; stroke:none;" d="M234 351L235 352L234 351z"/>
<path style="fill:#626262; stroke:none;" d="M370 351L371 352L370 351z"/>
<path style="fill:#717171; stroke:none;" d="M392.667 351.333C392.222 351.778 393.278 351.722 393.333 351.667C393.778 351.222 392.722 351.278 392.667 351.333z"/>
<path style="fill:#969696; stroke:none;" d="M394 351C395.248 351.685 395.548 351.749 397 352C395.752 351.315 395.452 351.251 394 351z"/>
<path style="fill:#b6b6b6; stroke:none;" d="M437.333 351.667C437.278 351.722 437.222 352.778 437.667 352.333C437.722 352.278 437.778 351.222 437.333 351.667z"/>
<path style="fill:#7d7d7d; stroke:none;" d="M441 351L442 352L441 351z"/>
<path style="fill:#696969; stroke:none;" d="M482 351L483 352L482 351z"/>
<path style="fill:#c3c3c3; stroke:none;" d="M483.667 351.333C483.222 351.778 484.278 351.722 484.333 351.667C484.778 351.222 483.722 351.278 483.667 351.333z"/>
<path style="fill:#828282; stroke:none;" d="M159 352L160 353L159 352z"/>
<path style="fill:#a8a8a8; stroke:none;" d="M166 352L167 353L166 352z"/>
<path style="fill:#b2b2b2; stroke:none;" d="M187 352L188 353L187 352z"/>
<path style="fill:#ffffff; stroke:none;" d="M188.005 352.742C175.062 357.751 183.277 377.318 195.981 371.991C207.808 367.032 200.549 347.888 188.005 352.742z"/>
<path style="fill:#a2a2a2; stroke:none;" d="M196 352L197 353L196 352z"/>
<path style="fill:#989898; stroke:none;" d="M217.333 352.667C217.278 352.722 217.222 353.778 217.667 353.333C217.722 353.278 217.778 352.222 217.333 352.667z"/>
<path style="fill:#8b8b8b; stroke:none;" d="M362.333 352.667C362.278 352.722 362.222 353.778 362.667 353.333C362.722 353.278 362.778 352.222 362.333 352.667z"/>
<path style="fill:#c8c8c8; stroke:none;" d="M369 352L370 353L369 352z"/>
<path style="fill:#a6a6a6; stroke:none;" d="M390 352L391 353L390 352z"/>
<path style="fill:#ffffff; stroke:none;" d="M391.015 352.742C379.071 357.432 386.546 376.97 398.981 372.106C411.879 367.06 403.734 347.748 391.015 352.742z"/>
<path style="fill:#bcbcbc; stroke:none;" d="M399 352L400 353L399 352z"/>
<path style="fill:#747474; stroke:none;" d="M420.333 352.667C420.278 352.722 420.222 353.778 420.667 353.333C420.722 353.278 420.778 352.222 420.333 352.667z"/>
<path style="fill:#6d6d6d; stroke:none;" d="M442 352L443 353L442 352z"/>
<path style="fill:#b5b5b5; stroke:none;" d="M478.667 352.333C478.222 352.778 479.278 352.722 479.333 352.667C479.778 352.222 478.722 352.278 478.667 352.333z"/>
<path style="fill:#494949; stroke:none;" d="M157 353C157.406 355.092 157.217 355.02 159 356C158.309 354.612 158.015 354.139 157 353z"/>
<path style="fill:#b0b0b0; stroke:none;" d="M159 353L160 354L159 353z"/>
<path style="fill:#717171; stroke:none;" d="M166 353L167 354L166 353z"/>
<path style="fill:#8c8c8c; stroke:none;" d="M185 353L186 354L185 353z"/>
<path style="fill:#818181; stroke:none;" d="M198 353L199 354L198 353z"/>
<path style="fill:#a2a2a2; stroke:none;" d="M239 353L240 354L239 353z"/>
<path style="fill:#999999; stroke:none;" d="M369 353L370 354L369 353z"/>
<path style="fill:#767676; stroke:none;" d="M388 353L389 354L388 353z"/>
<path style="fill:#757575; stroke:none;" d="M401 353L402 354L401 353z"/>
<path style="fill:#7b7b7b; stroke:none;" d="M428 353L429 354L428 353z"/>
<path style="fill:#797979; stroke:none;" d="M437 353L438 354L437 353z"/>
<path style="fill:#585858; stroke:none;" d="M443 353L444 354L443 353z"/>
<path style="fill:#171717; stroke:none;" d="M467 353C468.248 353.685 468.548 353.749 470 354C468.752 353.315 468.452 353.251 467 353z"/>
<path style="fill:#7b7b7b; stroke:none;" d="M473 353L474 354L473 353z"/>
<path style="fill:#b2b2b2; stroke:none;" d="M474 353L475 354L474 353z"/>
<path style="fill:#181818; stroke:none;" d="M111 354L111 358C111.71 356.241 111.71 355.759 111 354z"/>
<path style="fill:#a5a5a5; stroke:none;" d="M184 354L185 355L184 354z"/>
<path style="fill:#8e8e8e; stroke:none;" d="M199 354L200 355L199 354z"/>
<path style="fill:#5e5e5e; stroke:none;" d="M217 354L218 355L217 354z"/>
<path style="fill:#9f9f9f; stroke:none;" d="M225 354L226 355L225 354z"/>
<path style="fill:#d0d0d0; stroke:none;" d="M235 354L236 355L235 354z"/>
<path style="fill:#6d6d6d; stroke:none;" d="M240 354L241 355L240 354z"/>
<path style="fill:#cccccc; stroke:none;" d="M362 354L363 355L362 354z"/>
<path style="fill:#545454; stroke:none;" d="M369 354L370 355L369 354z"/>
<path style="fill:#7d7d7d; stroke:none;" d="M387 354L388 355L387 354z"/>
<path style="fill:#b9b9b9; stroke:none;" d="M402 354L403 355L402 354z"/>
<path style="fill:#c6c6c6; stroke:none;" d="M428 354L429 355L428 354z"/>
<path style="fill:#b5b5b5; stroke:none;" d="M443 354L444 355L443 354z"/>
<path style="fill:#6a6a6a; stroke:none;" d="M467 354L468 355L467 354z"/>
<path style="fill:#959595; stroke:none;" d="M468 354L469 355L468 354z"/>
<path style="fill:#e7e7e7; stroke:none;" d="M469.667 354.333C469.222 354.778 470.278 354.722 470.333 354.667C470.778 354.222 469.722 354.278 469.667 354.333z"/>
<path style="fill:#c5c5c5; stroke:none;" d="M165 355L166 356L165 355z"/>
<path style="fill:#969696; stroke:none;" d="M183 355L184 356L183 355z"/>
<path style="fill:#787878; stroke:none;" d="M200 355L201 356L200 355z"/>
<path style="fill:#929292; stroke:none;" d="M235 355L236 356L235 355z"/>
<path style="fill:#5b5b5b; stroke:none;" d="M241 355L242 356L241 355z"/>
<path style="fill:#000000; stroke:none;" d="M385 355L386 356L385 355z"/>
<path style="fill:#848484; stroke:none;" d="M386 355L387 356L386 355z"/>
<path style="fill:#8f8f8f; stroke:none;" d="M403 355L404 356L403 355z"/>
<path style="fill:#bebebe; stroke:none;" d="M421 355L422 356L421 355z"/>
<path style="fill:#d3d3d3; stroke:none;" d="M438 355L439 356L438 355z"/>
<path style="fill:#979797; stroke:none;" d="M444 355L445 356L444 355z"/>
<path style="fill:#808080; stroke:none;" d="M462.667 355.333C462.222 355.778 463.278 355.722 463.333 355.667C463.778 355.222 462.722 355.278 462.667 355.333z"/>
<path style="fill:#d7d7d7; stroke:none;" d="M464.667 355.333C464.222 355.778 465.278 355.722 465.333 355.667C465.778 355.222 464.722 355.278 464.667 355.333z"/>
<path style="fill:#a6a6a6; stroke:none;" d="M158 356L159 357L158 356z"/>
<path style="fill:#797979; stroke:none;" d="M165 356L166 357L165 356z"/>
<path style="fill:#747474; stroke:none;" d="M182 356L183 357L182 356z"/>
<path style="fill:#5d5d5d; stroke:none;" d="M201 356L202 357L201 356z"/>
<path style="fill:#b5b5b5; stroke:none;" d="M218 356L219 357L218 356z"/>
<path style="fill:#b2b2b2; stroke:none;" d="M241 356L242 357L241 356z"/>
<path style="fill:#747474; stroke:none;" d="M361 356L362 357L361 356z"/>
<path style="fill:#afafaf; stroke:none;" d="M368 356L369 357L368 356z"/>
<path style="fill:#181818; stroke:none;" d="M384.333 356.667C384.278 356.722 384.222 357.778 384.667 357.333C384.722 357.278 384.778 356.222 384.333 356.667z"/>
<path style="fill:#585858; stroke:none;" d="M385 356L386 357L385 356z"/>
<path style="fill:#787878; stroke:none;" d="M404 356L405 357L404 356z"/>
<path style="fill:#848484; stroke:none;" d="M421 356L422 357L421 356z"/>
<path style="fill:#5e5e5e; stroke:none;" d="M429 356L430 357L429 356z"/>
<path style="fill:#8e8e8e; stroke:none;" d="M438 356L439 357L438 356z"/>
<path style="fill:#727272; stroke:none;" d="M445 356L446 357L445 356z"/>
<path style="fill:#181818; stroke:none;" d="M453 356C454.506 356.683 455.315 356.826 457 357C455.494 356.317 454.685 356.174 453 356z"/>
<path style="fill:#8a8a8a; stroke:none;" d="M458 356L459 357L458 356z"/>
<path style="fill:#e7e7e7; stroke:none;" d="M459.667 356.333C459.222 356.778 460.278 356.722 460.333 356.667C460.778 356.222 459.722 356.278 459.667 356.333z"/>
<path style="fill:#a5a5a5; stroke:none;" d="M201 357L202 358L201 357z"/>
<path style="fill:#838383; stroke:none;" d="M218 357L219 358L218 357z"/>
<path style="fill:#848484; stroke:none;" d="M226 357L227 358L226 357z"/>
<path style="fill:#9c9c9c; stroke:none;" d="M242 357L243 358L242 357z"/>
<path style="fill:#aeaeae; stroke:none;" d="M361 357L362 358L361 357z"/>
<path style="fill:#555555; stroke:none;" d="M368.333 357.667C368.278 357.722 368.222 358.778 368.667 358.333C368.722 358.278 368.778 357.222 368.333 357.667z"/>
<path style="fill:#c9c9c9; stroke:none;" d="M385 357L386 358L385 357z"/>
<path style="fill:#a4a4a4; stroke:none;" d="M429 357L430 358L429 357z"/>
<path style="fill:#929292; stroke:none;" d="M453 357L454 358L453 357z"/>
<path style="fill:#d2d2d2; stroke:none;" d="M110 358L111 359L110 358z"/>
<path style="fill:#636363; stroke:none;" d="M181 358L182 359L181 358z"/>
<path style="fill:#737373; stroke:none;" d="M202.333 358.667C202.278 358.722 202.222 359.778 202.667 359.333C202.722 359.278 202.778 358.222 202.333 358.667z"/>
<path style="fill:#cbcbcb; stroke:none;" d="M226 358L227 359L226 358z"/>
<path style="fill:#b4b4b4; stroke:none;" d="M236 358L237 359L236 358z"/>
<path style="fill:#838383; stroke:none;" d="M243 358L244 359L243 358z"/>
<path style="fill:#5e5e5e; stroke:none;" d="M360.333 358.667C360.278 358.722 360.222 359.778 360.667 359.333C360.722 359.278 360.778 358.222 360.333 358.667z"/>
<path style="fill:#626262; stroke:none;" d="M405 358L406 359L405 358z"/>
<path style="fill:#7c7c7c; stroke:none;" d="M446 358C447.248 358.685 447.548 358.749 449 359C447.752 358.315 447.452 358.251 446 358z"/>
<path style="fill:#b9b9b9; stroke:none;" d="M449 358L450 359L449 358z"/>
<path style="fill:#919191; stroke:none;" d="M111 359L112 360L111 359z"/>
<path style="fill:#838383; stroke:none;" d="M157 359L158 360L157 359z"/>
<path style="fill:#d5d5d5; stroke:none;" d="M164 359L164 365C164.951 362.715 164.951 361.285 164 359z"/>
<path style="fill:#b6b6b6; stroke:none;" d="M181 359L182 360L181 359z"/>
<path style="fill:#6f6f6f; stroke:none;" d="M236.333 359.667C236.278 359.722 236.222 360.778 236.667 360.333C236.722 360.278 236.778 359.222 236.333 359.667z"/>
<path style="fill:#d4d4d4; stroke:none;" d="M243 359L244 360L243 359z"/>
<path style="fill:#212121; stroke:none;" d="M383 359L383 365C383.951 362.715 383.951 361.285 383 359z"/>
<path style="fill:#838383; stroke:none;" d="M384 359L385 360L384 359z"/>
<path style="fill:#1a1a1a; stroke:none;" d="M421 359L421 365C421.951 362.715 421.951 361.285 421 359z"/>
<path style="fill:#b3b3b3; stroke:none;" d="M439 359L437 360C438.482 360.791 439.796 360.87 439 359z"/>
<path style="fill:#c5c5c5; stroke:none;" d="M112 360L113 361L112 360z"/>
<path style="fill:#8d8d8d; stroke:none;" d="M113 360L114 361L113 360z"/>
<path style="fill:#b9b9b9; stroke:none;" d="M157 360L158 361L157 360z"/>
<path style="fill:#d5d5d5; stroke:none;" d="M202 360L202 365C202.83 362.969 202.83 362.031 202 360z"/>
<path style="fill:#818181; stroke:none;" d="M227 360L228 361L227 360z"/>
<path style="fill:#bfbfbf; stroke:none;" d="M244 360L245 361L244 360z"/>
<path style="fill:#575757; stroke:none;" d="M245 360L246 361L245 360z"/>
<path style="fill:#3b3b3b; stroke:none;" d="M247 360C250.699 361.552 255.017 361 259 361L281 361L359 361C355.301 359.448 350.983 360 347 360L325 360L247 360z"/>
<path style="fill:#d4d4d4; stroke:none;" d="M384 360L384 365C384.83 362.97 384.83 362.03 384 360z"/>
<path style="fill:#d7d7d7; stroke:none;" d="M422 360L422 365C422.83 362.97 422.83 362.03 422 360z"/>
<path style="fill:#a1a1a1; stroke:none;" d="M430 360L431 361L430 360z"/>
<path style="fill:#606060; stroke:none;" d="M432.667 360.333C432.222 360.778 433.278 360.722 433.333 360.667C433.778 360.222 432.722 360.278 432.667 360.333z"/>
<path style="fill:#797979; stroke:none;" d="M434 360C435.248 360.685 435.549 360.749 437 361C435.752 360.315 435.452 360.251 434 360z"/>
<path style="fill:#a0a0a0; stroke:none;" d="M181 365L182 366L181 365z"/>
<path style="fill:#838383; stroke:none;" d="M202 365L203 366L202 365z"/>
<path style="fill:#636363; stroke:none;" d="M218 365L218 368C218.696 366.446 218.696 366.554 218 365z"/>
<path style="fill:#7c7c7c; stroke:none;" d="M384 365L385 366L384 365z"/>
<path style="fill:#adadad; stroke:none;" d="M405 365L406 366L405 365z"/>
<path style="fill:#4c4c4c; stroke:none;" d="M165.333 366.667C165.278 366.722 165.222 367.778 165.667 367.333C165.722 367.278 165.778 366.222 165.333 366.667z"/>
<path style="fill:#bfbfbf; stroke:none;" d="M201.333 366.667C201.278 366.722 201.222 367.778 201.667 367.333C201.722 367.278 201.778 366.222 201.333 366.667z"/>
<path style="fill:#707070; stroke:none;" d="M368.333 366.667C368.278 366.722 368.222 367.778 368.667 367.333C368.722 367.278 368.778 366.222 368.333 366.667z"/>
<path style="fill:#bebebe; stroke:none;" d="M385.333 366.667C385.278 366.722 385.222 367.778 385.667 367.333C385.722 367.278 385.778 366.222 385.333 366.667z"/>
<path style="fill:#d9d9d9; stroke:none;" d="M404.333 366.667C404.278 366.722 404.222 367.778 404.667 367.333C404.722 367.278 404.778 366.222 404.333 366.667z"/>
<path style="fill:#4c4c4c; stroke:none;" d="M421.333 366.667C421.278 366.722 421.222 367.778 421.667 367.333C421.722 367.278 421.778 366.222 421.333 366.667z"/>
<path style="fill:#212121; stroke:none;" d="M181 367C182.361 371.734 185.402 373.633 190 375L181 367z"/>
<path style="fill:#808080; stroke:none;" d="M165 368L166 369L165 368z"/>
<path style="fill:#5a5a5a; stroke:none;" d="M182 368L183 369L182 368z"/>
<path style="fill:#a3a3a3; stroke:none;" d="M218 368L219 369L218 368z"/>
<path style="fill:#bbbbbb; stroke:none;" d="M368 368L369 369L368 368z"/>
<path style="fill:#545454; stroke:none;" d="M385 368L386 369L385 368z"/>
<path style="fill:#717171; stroke:none;" d="M404 368L405 369L404 368z"/>
<path style="fill:#b8b8b8; stroke:none;" d="M421.333 368.667C421.278 368.722 421.222 369.778 421.667 369.333C421.722 369.278 421.778 368.222 421.333 368.667z"/>
<path style="fill:#b1b1b1; stroke:none;" d="M165 369L166 370L165 369z"/>
<path style="fill:#7e7e7e; stroke:none;" d="M183 369L184 370L183 369z"/>
<path style="fill:#656565; stroke:none;" d="M200 369L201 370L200 369z"/>
<path style="fill:#1b1b1b; stroke:none;" d="M385 369L385 371L387 371C386.455 369.365 386.635 369.545 385 369z"/>
<path style="fill:#686868; stroke:none;" d="M386 369L387 370L386 369z"/>
<path style="fill:#838383; stroke:none;" d="M403 369L404 370L403 369z"/>
<path style="fill:#959595; stroke:none;" d="M184 370L185 371L184 370z"/>
<path style="fill:#686868; stroke:none;" d="M199 370L200 371L199 370z"/>
<path style="fill:#787878; stroke:none;" d="M387 370L388 371L387 370z"/>
<path style="fill:#848484; stroke:none;" d="M402 370L403 371L402 370z"/>
<path style="fill:#6c6c6c; stroke:none;" d="M166 371L167 372L166 371z"/>
<path style="fill:#787878; stroke:none;" d="M185 371L186 372L185 371z"/>
<path style="fill:#bcbcbc; stroke:none;" d="M197 371L198 372L197 371z"/>
<path style="fill:#636363; stroke:none;" d="M198 371L199 372L198 371z"/>
<path style="fill:#8d8d8d; stroke:none;" d="M217 371L218 372L217 371z"/>
<path style="fill:#8f8f8f; stroke:none;" d="M369 371L370 372L369 371z"/>
<path style="fill:#bfbfbf; stroke:none;" d="M389 371L390 372L389 371z"/>
<path style="fill:#676767; stroke:none;" d="M401 371L402 372L401 371z"/>
<path style="fill:#151515; stroke:none;" d="M419.333 371.667C419.278 371.722 419.222 372.778 419.667 372.333C419.722 372.278 419.778 371.222 419.333 371.667z"/>
<path style="fill:#787878; stroke:none;" d="M420 371L421 372L420 371z"/>
<path style="fill:#cbcbcb; stroke:none;" d="M166 372L167 373L166 372z"/>
<path style="fill:#8a8a8a; stroke:none;" d="M187 372L188 373L187 372z"/>
<path style="fill:#d2d2d2; stroke:none;" d="M195 372L196 373L195 372z"/>
<path style="fill:#7c7c7c; stroke:none;" d="M196 372L197 373L196 372z"/>
<path style="fill:#707070; stroke:none;" d="M390 372L391 373L390 372z"/>
<path style="fill:#b2b2b2; stroke:none;" d="M391 372L392 373L391 372z"/>
<path style="fill:#cbcbcb; stroke:none;" d="M398 372L399 373L398 372z"/>
<path style="fill:#9a9a9a; stroke:none;" d="M399 372L400 373L399 372z"/>
<path style="fill:#c5c5c5; stroke:none;" d="M420 372L421 373L420 372z"/>
<path style="fill:#5a5a5a; stroke:none;" d="M189 373C190.735 374.05 190.932 374.046 193 374C191.494 373.317 190.685 373.174 189 373z"/>
<path style="fill:#686868; stroke:none;" d="M216 373L217 374L216 373z"/>
<path style="fill:#636363; stroke:none;" d="M370 373L371 374L370 373z"/>
<path style="fill:#6d6d6d; stroke:none;" d="M393 373C394.248 373.685 394.549 373.749 396 374C394.752 373.315 394.452 373.251 393 373z"/>
<path style="fill:#a8a8a8; stroke:none;" d="M167 374L168 375L167 374z"/>
<path style="fill:#c6c6c6; stroke:none;" d="M216 374L217 375L216 374z"/>
<path style="fill:#bebebe; stroke:none;" d="M370 374L371 375L370 374z"/>
<path style="fill:#b0b0b0; stroke:none;" d="M419 374L420 375L419 374z"/>
<path style="fill:#6e6e6e; stroke:none;" d="M371 375L372 376L371 375z"/>
<path style="fill:#b0b0b0; stroke:none;" d="M168 376L169 377L168 376z"/>
<path style="fill:#bfbfbf; stroke:none;" d="M418 376L419 377L418 376z"/>
<path style="fill:#6b6b6b; stroke:none;" d="M169 377L170 378L169 377z"/>
<path style="fill:#939393; stroke:none;" d="M214 377L215 378L214 377z"/>
<path style="fill:#929292; stroke:none;" d="M372 377L373 378L372 377z"/>
<path style="fill:#818181; stroke:none;" d="M417 377L418 378L417 377z"/>
<path style="fill:#5c5c5c; stroke:none;" d="M170 378L171 379L170 378z"/>
<path style="fill:#777777; stroke:none;" d="M213 378L214 379L213 378z"/>
<path style="fill:#6f6f6f; stroke:none;" d="M373 378L374 379L373 378z"/>
<path style="fill:#bcbcbc; stroke:none;" d="M170 379L171 380L170 379z"/>
<path style="fill:#585858; stroke:none;" d="M374 379L375 380L374 379z"/>
<path style="fill:#c1c1c1; stroke:none;" d="M416 379L417 380L416 379z"/>
<path style="fill:#a2a2a2; stroke:none;" d="M171 380L172 381L171 380z"/>
<path style="fill:#222222; stroke:none;" d="M172 380C173.223 381.195 173.42 381.316 175 382C173.777 380.805 173.58 380.684 172 380z"/>
<path style="fill:#cecece; stroke:none;" d="M212 380L213 381L212 380z"/>
<path style="fill:#c1c1c1; stroke:none;" d="M374 380L375 381L374 380z"/>
<path style="fill:#b1b1b1; stroke:none;" d="M415 380L416 381L415 380z"/>
<path style="fill:#9a9a9a; stroke:none;" d="M172 381L173 382L172 381z"/>
<path style="fill:#bfbfbf; stroke:none;" d="M211 381L212 382L211 381z"/>
<path style="fill:#c0c0c0; stroke:none;" d="M375 381L376 382L375 381z"/>
<path style="fill:#8e8e8e; stroke:none;" d="M414 381L415 382L414 381z"/>
<path style="fill:#9a9a9a; stroke:none;" d="M173 382L174 383L173 382z"/>
<path style="fill:#bababa; stroke:none;" d="M210 382L211 383L210 382z"/>
<path style="fill:#959595; stroke:none;" d="M376 382L377 383L376 382z"/>
<path style="fill:#646464; stroke:none;" d="M377 382L378 383L377 382z"/>
<path style="fill:#a7a7a7; stroke:none;" d="M413 382L414 383L413 382z"/>
<path style="fill:#bebebe; stroke:none;" d="M174 383L175 384L174 383z"/>
<path style="fill:#c1c1c1; stroke:none;" d="M377 383L378 384L377 383z"/>
<path style="fill:#b8b8b8; stroke:none;" d="M412 383L413 384L412 383z"/>
<path style="fill:#606060; stroke:none;" d="M207 384L208 385L207 384z"/>
<path style="fill:#828282; stroke:none;" d="M379 384L380 385L379 384z"/>
<path style="fill:#6c6c6c; stroke:none;" d="M410 384L411 385L410 384z"/>
<path style="fill:#a7a7a7; stroke:none;" d="M177 385L178 386L177 385z"/>
<path style="fill:#1b1b1b; stroke:none;" d="M179 385C180.543 386.267 181.048 386.489 183 387C181.542 385.919 180.752 385.564 179 385z"/>
<path style="fill:#b0b0b0; stroke:none;" d="M206 385L207 386L206 385z"/>
<path style="fill:#b7b7b7; stroke:none;" d="M380 385L381 386L380 385z"/>
<path style="fill:#5a5a5a; stroke:none;" d="M381 385L382 386L381 385z"/>
<path style="fill:#1e1e1e; stroke:none;" d="M382 385C383.223 386.195 383.42 386.316 385 387C383.777 385.805 383.58 385.684 382 385z"/>
<path style="fill:#a1a1a1; stroke:none;" d="M409 385L410 386L409 385z"/>
<path style="fill:#979797; stroke:none;" d="M179 386L180 387L179 386z"/>
<path style="fill:#0a0a0a; stroke:none;" d="M201.667 386.333C201.222 386.778 202.278 386.722 202.333 386.667C202.778 386.222 201.722 386.278 201.667 386.333z"/>
<path style="fill:#adadad; stroke:none;" d="M204 386L205 387L204 386z"/>
<path style="fill:#9c9c9c; stroke:none;" d="M382 386L383 387L382 386z"/>
<path style="fill:#636363; stroke:none;" d="M406.667 386.333C406.222 386.778 407.278 386.722 407.333 386.667C407.778 386.222 406.722 386.278 406.667 386.333z"/>
<path style="fill:#cccccc; stroke:none;" d="M408 386L409 387L408 386z"/>
<path style="fill:#d0d0d0; stroke:none;" d="M180 387L181 388L180 387z"/>
<path style="fill:#969696; stroke:none;" d="M181 387L182 388L181 387z"/>
<path style="fill:#202020; stroke:none;" d="M184 387C188.829 390.299 195.527 389.016 201 388C196.421 386.213 189.125 387.404 184 387z"/>
<path style="fill:#6a6a6a; stroke:none;" d="M201 387L202 388L201 387z"/>
<path style="fill:#bdbdbd; stroke:none;" d="M202 387L203 388L202 387z"/>
<path style="fill:#9b9b9b; stroke:none;" d="M384 387L385 388L384 387z"/>
<path style="fill:#5f5f5f; stroke:none;" d="M385 387L386 388L385 387z"/>
<path style="fill:#0e0e0e; stroke:none;" d="M386.667 387.333C386.222 387.778 387.278 387.722 387.333 387.667C387.778 387.222 386.722 387.278 386.667 387.333z"/>
<path style="fill:#8a8a8a; stroke:none;" d="M405 387L406 388L405 387z"/>
<path style="fill:#bababa; stroke:none;" d="M183 388L184 389L183 388z"/>
<path style="fill:#656565; stroke:none;" d="M184.667 388.333C184.222 388.778 185.278 388.722 185.333 388.667C185.778 388.222 184.722 388.278 184.667 388.333z"/>
<path style="fill:#818181; stroke:none;" d="M198.667 388.333C198.222 388.778 199.278 388.722 199.333 388.667C199.778 388.222 198.722 388.278 198.667 388.333z"/>
<path style="fill:#a7a7a7; stroke:none;" d="M387 388L388 389L387 388z"/>
<path style="fill:#1b1b1b; stroke:none;" d="M392 388C394.052 388.874 395.747 388.953 398 389C395.948 388.126 394.253 388.047 392 388z"/>
<path style="fill:#5c5c5c; stroke:none;" d="M401 388L402 389L401 388z"/>
<path style="fill:#9e9e9e; stroke:none;" d="M402 388L403 389L402 388z"/>
<path style="fill:#bbbbbb; stroke:none;" d="M187.667 389.333C187.222 389.778 188.278 389.722 188.333 389.667C188.778 389.222 187.722 389.278 187.667 389.333z"/>
<path style="fill:#949494; stroke:none;" d="M189 389C190.769 389.779 192.036 389.912 194 390C192.231 389.221 190.964 389.088 189 389z"/>
<path style="fill:#c0c0c0; stroke:none;" d="M194 389C195.248 389.685 195.548 389.749 197 390C195.752 389.315 195.452 389.251 194 389z"/>
<path style="fill:#c2c2c2; stroke:none;" d="M390.667 389.333C390.222 389.778 391.278 389.722 391.333 389.667C391.778 389.222 390.722 389.278 390.667 389.333z"/>
<path style="fill:#8b8b8b; stroke:none;" d="M392 389C393.769 389.779 395.036 389.912 397 390C395.231 389.221 393.964 389.088 392 389z"/>
<path style="fill:#c0c0c0; stroke:none;" d="M397 389C398.248 389.685 398.548 389.749 400 390C398.752 389.315 398.452 389.251 397 389z"/>
</svg>
